<?xml version="1.0" encoding="UTF-8"?>
<svg id="Layer_2" data-name="Layer 2" xmlns="http://www.w3.org/2000/svg" viewBox="0 0 85.9 85.9">
  <g id="Layer_1-2" data-name="Layer 1">
    <g>
      <path d="M42.95,20.61c-12.12,0-22.17,9.87-22.17,22.17s9.87,22.17,22.17,22.17,22.17-10.04,22.17-22.17-10.04-22.17-22.17-22.17ZM42.95,56.98c-7.79,0-14.2-6.41-14.2-14.2s6.41-14.2,14.2-14.2,14.2,6.41,14.2,14.2-6.41,14.2-14.2,14.2Z" style="fill: #fff; stroke-width: 0px;"/>
      <circle cx="65.98" cy="20.09" r="5.02" style="fill: #fff; stroke-width: 0px;"/>
      <path d="M78.97,7.1c-4.5-4.68-10.91-7.1-18.18-7.1H25.11C10.04,0,0,10.04,0,25.11v35.5c0,7.45,2.42,13.85,7.27,18.53,4.68,4.5,10.91,6.75,18.01,6.75h35.33c7.45,0,13.68-2.42,18.18-6.75,4.68-4.5,7.1-10.91,7.1-18.36V25.11c0-7.27-2.42-13.51-6.93-18.01ZM78.28,60.79c0,5.37-1.9,9.7-5.02,12.64s-7.45,4.5-12.64,4.5H25.28c-5.2,0-9.52-1.56-12.64-4.5-3.12-3.12-4.68-7.45-4.68-12.82V25.11c0-5.2,1.56-9.52,4.68-12.64,2.94-2.94,7.45-4.5,12.64-4.5h35.67c5.2,0,9.52,1.56,12.64,4.68,2.94,3.12,4.68,7.45,4.68,12.47v35.67h0Z" style="fill: #fff; stroke-width: 0px;"/>
    </g>
  </g>
</svg>