<?xml version="1.0" encoding="utf-8"?>
<!-- Generator: Adobe Illustrator 28.2.0, SVG Export Plug-In . SVG Version: 6.00 Build 0)  -->
<svg version="1.1" id="Layer_1" xmlns="http://www.w3.org/2000/svg" xmlns:xlink="http://www.w3.org/1999/xlink" x="0px" y="0px"
	 viewBox="0 0 135.1 135.1" style="enable-background:new 0 0 135.1 135.1;" xml:space="preserve">
<style type="text/css">
	.st0{fill:#FFFFFF;}
</style>
<path class="st0" d="M124.3,24.7H14c-4.8,0-8.7,3.9-8.7,8.7v69.4c0,4.8,3.9,8.7,8.7,8.7h110.3c4.8,0,8.7-3.9,8.7-8.7V33.4
	C132.9,28.6,129.1,24.7,124.3,24.7z M70.2,82.3L22.6,34.7h93.7L70.2,82.3z M42.7,69L15.3,96.4V41.5L42.7,69z M49.8,76l18.5,18.5l0,0
	l2,2l2.6-2.6l0,0L90,76.2l25.2,25.2H24.3L49.8,76z M96.9,69.1l26-26.9v52.9L96.9,69.1z"/>
</svg>
