<?xml version="1.0" encoding="UTF-8"?>
<svg id="Layer_2" data-name="Layer 2" xmlns="http://www.w3.org/2000/svg" viewBox="0 0 161.08 61.86">
  <g id="Layer_1-2" data-name="Layer 1">
    <g>
      <path d="M50.23,59.22l2.64-.18-3.72-54.01-22.12,33.39c-.25.38-.46.77-.67,1.21-.37.77-.74,1.67-1.1,2.7-.54,1.54-1.06,3.32-1.46,5.16-.39,1.84-.67,3.71-.67,5.48,0,.73.05,1.45.17,2.17.09.53.23,1.06.45,1.59.32.78.83,1.6,1.64,2.22.4.31.87.56,1.36.72.49.16,1,.24,1.51.25l.04-2.65-2.2-1.47-.52.78H4.95v2.65l2.2,1.47,1.3-1.95-2.2-1.47.08,2.65c1.12-.03,2.17-.32,3.2-.75,1.93-.8,3.83-2.1,5.84-3.75,3.51-2.88,7.3-6.88,11.09-11.32,5.68-6.67,11.32-14.34,15.57-20.63,2.13-3.15,3.9-5.94,5.17-8.12.64-1.09,1.14-2.03,1.52-2.82.19-.4.35-.76.48-1.13.07-.19.13-.37.18-.59.05-.22.1-.47.1-.84,0-.28-.02-.64-.23-1.14l-2.44,1.03,2.64-.15-.44-7.76h-7.82v2.65l2.2,1.47.52-.77h29.18s2.53,28.31,2.53,28.31l-13.14,22.96h-12.27v2.65l2.64-.18-2.64.18v2.65h15.34l15.49-27.07L77.96,0h-36.85l-4.84,7.24h7.77l.18,3.22.18.42,2.18-.92h-2.37c0,.19,0,.48.19.92l2.18-.92h-2.37,1.76l-1.73-.36c0,.05-.03.15-.03.36h1.76l-1.73-.36.75.15-.74-.2v.04s.74.15.74.15l-.74-.2.07.02-.07-.02h0s.07.02.07.02l-.07-.02s-.16.43-.42.94c-.49.98-1.34,2.47-2.46,4.27-3.91,6.32-11.03,16.48-18.17,24.98-3.57,4.25-7.15,8.09-10.27,10.8-1.56,1.35-3,2.42-4.2,3.11-.6.34-1.13.59-1.57.74-.44.15-.78.21-.98.21l-1.37.04-4.82,7.2h28.41l4.79-7.17-4.86-.08h0s-.04.54-.04.54l.31-.42c-.1-.08-.27-.12-.27-.12l-.04.54.31-.42-.32.44.41-.37-.08-.07-.32.44.41-.37-.21.19.22-.17v-.02s-.22.19-.22.19l.22-.17-.04.03.05-.03h0s-.04.03-.04.03l.05-.03s-.1-.18-.17-.51c-.07-.33-.11-.8-.11-1.35,0-.92.12-2.05.33-3.24.32-1.78.83-3.68,1.37-5.25.27-.78.54-1.49.78-2.04.24-.55.47-.97.54-1.09l13.5-20.38,2.82,40.9h2.47v-2.65Z" style="fill: #fff; stroke-width: 0px;"/>
      <path d="M101.21,2.65v2.65h42.96c3.7,0,6.38.45,8.07,1.18.85.36,1.46.78,1.92,1.24.46.46.8.98,1.07,1.67l2.47-.96-2.49.91c.35.97.56,2.21.56,3.65,0,2.8-.79,6.3-2.4,9.88-1.73,3.85-4.48,8.02-7.98,12.08-3.5,4.07-7.73,8.04-12.4,11.58h0c-4.66,3.5-8.94,6.02-12.96,7.66-4.02,1.64-7.77,2.4-11.48,2.4h-40L103.41,4.11l-2.2-1.46v2.65-2.65l-2.2-1.46-40.3,60.68h49.87c4.44,0,8.92-.93,13.47-2.79,4.56-1.86,9.22-4.64,14.14-8.34h0c4.95-3.76,9.45-7.97,13.21-12.35,3.76-4.37,6.79-8.91,8.8-13.36,1.86-4.15,2.85-8.29,2.86-12.04,0-1.94-.27-3.78-.88-5.47v-.03s-.02-.03-.02-.03c-.51-1.31-1.27-2.51-2.27-3.5-1.51-1.5-3.47-2.49-5.74-3.09C149.88.26,147.25,0,144.17,0h-44.38l-.79,1.18,2.2,1.46Z" style="fill: #fff; stroke-width: 0px;"/>
      <path d="M84.01,7.33l4.62-7.33h23.58l-9.59,5.34-11.47,7.61c1.15-1.75,1.67-3.56,1.65-5.44-1.82-.68-5.28-.44-8.79-.18Z" style="fill: #fff; stroke-width: 0px;"/>
      <polygon points="116.79 11.92 122.27 11.92 97.18 49.4 91.54 49.4 116.79 11.92" style="fill: #fff; stroke-width: 0px;"/>
      <polygon points="129.71 11.92 135.2 11.92 110.11 49.4 104.46 49.4 129.71 11.92" style="fill: #fff; stroke-width: 0px;"/>
    </g>
  </g>
</svg>