<?xml version="1.0" encoding="utf-8"?>
<!-- Generator: Adobe Illustrator 28.2.0, SVG Export Plug-In . SVG Version: 6.00 Build 0)  -->
<svg version="1.1" id="Layer_1" xmlns="http://www.w3.org/2000/svg" xmlns:xlink="http://www.w3.org/1999/xlink" x="0px" y="0px"
	 viewBox="0 0 182.6 70.2" style="enable-background:new 0 0 182.6 70.2;" xml:space="preserve">
<style type="text/css">
	.st0{fill:none;stroke:#FFFFFF;stroke-width:6;stroke-miterlimit:10;}
	.st1{fill:#FFFFFF;}
</style>
<g>
	<path class="st0" d="M56.6,67.1L53,14.7L32.8,45.2c-2.1,3.2-7.1,19.6-1.1,19.7l-1.5,2.2h-25l1.5-2.2c12.6-0.4,47-51.4,46-53.7
		l-0.3-6h-6L47.8,3h37.4l3.2,35.8L72.2,67.1H56.6z"/>
	<g>
		<path class="st0" d="M114.4,3h48.7c8.8,0,13.6,2,15.3,6.5c1.6,4.4,0.8,11-2.2,17.6c-4.2,9.4-13.1,19.7-24,28
			c-10.9,8.2-20.3,12-29.5,12H71.8L114.4,3z"/>
		<path class="st1" d="M94.9,8.3l5.2-8.3h26.7L116,6.1l-13,8.6c1.3-2,1.9-4,1.9-6.2C102.8,7.7,98.8,8,94.9,8.3z"/>
	</g>
	<polygon class="st1" points="132,13.5 138.2,13.5 109.8,56 103.4,56 	"/>
	<polygon class="st1" points="146.7,13.5 152.9,13.5 124.4,56 118,56 	"/>
</g>
</svg>
